<?xml version="1.0" standalone="no"?>
<!DOCTYPE svg PUBLIC "-//W3C//DTD SVG 20010904//EN"
 "http://www.w3.org/TR/2001/REC-SVG-20010904/DTD/svg10.dtd">
<svg version="1.0" xmlns="http://www.w3.org/2000/svg"
 width="288.000000pt" height="288.000000pt" viewBox="0 0 288.000000 288.000000"
 preserveAspectRatio="xMidYMid meet">
<metadata>
Created by potrace 1.16, written by Peter Selinger 2001-2019
</metadata>
<g transform="translate(0.000000,288.000000) scale(0.100000,-0.100000)"
fill="#000000" stroke="none">
<path d="M0 2440 c0 -319 3 -446 12 -465 9 -20 9 -31 0 -45 -9 -14 -12 -262
-12 -974 l0 -956 979 0 c775 0 980 3 984 12 4 10 6 10 6 1 1 -8 14 -13 31 -13
23 0 28 4 24 18 -5 16 -5 16 9 -1 13 -16 46 -17 431 -17 l416 0 0 758 c-1 748
-1 757 -20 721 -27 -50 -46 -65 -65 -49 -14 12 -14 15 0 36 20 31 20 51 0 34
-19 -16 -35 -4 -35 25 0 13 -4 25 -9 27 -4 2 -32 51 -60 109 -45 92 -51 112
-45 144 3 20 12 39 19 41 18 7 82 -27 125 -66 19 -17 47 -41 63 -52 l27 -19 0
585 0 586 -676 0 -676 0 7 -30 c4 -16 3 -30 -2 -30 -5 0 -19 14 -31 30 -15 19
-31 30 -48 30 -23 0 -24 -1 -10 -22 8 -13 20 -42 27 -65 6 -23 16 -40 20 -37
13 8 11 48 -3 63 -11 10 -9 11 7 5 11 -4 27 -13 36 -21 9 -7 19 -10 24 -6 4 5
5 3 1 -4 -4 -7 0 -29 9 -49 24 -58 20 -69 -34 -97 -26 -14 -77 -46 -112 -70
-56 -39 -69 -43 -106 -39 -46 4 -52 16 -34 65 9 23 12 24 85 19 41 -2 83 -2
92 2 16 6 16 8 1 23 -22 23 -99 42 -169 43 -31 0 -60 5 -63 10 -4 6 7 26 24
46 17 19 31 40 31 46 0 6 11 26 25 44 14 18 25 35 25 38 0 3 -299 6 -665 6
l-665 0 0 -440z m1980 -39 c0 -16 28 -20 58 -9 26 10 33 9 61 -15 17 -14 40
-28 51 -32 11 -3 20 -13 20 -21 0 -8 7 -14 15 -14 9 0 21 -11 27 -25 6 -14 17
-25 25 -25 7 0 13 -5 13 -11 0 -6 10 -19 23 -30 16 -13 18 -19 7 -19 -12 0
-11 -4 4 -15 18 -13 17 -22 -3 -55 -6 -8 -12 -27 -16 -42 -3 -15 -14 -36 -26
-47 -19 -18 -20 -21 -5 -78 15 -56 15 -62 -4 -98 -22 -44 -26 -85 -9 -102 9
-9 8 -16 -3 -27 -12 -11 -18 -12 -27 -3 -10 9 -11 6 -5 -17 5 -21 4 -27 -5
-22 -6 4 -11 11 -11 17 0 5 -9 29 -21 54 -19 41 -47 62 -75 57 -6 -1 -16 9
-22 23 -6 14 -17 25 -23 25 -7 0 -27 11 -45 25 -18 14 -36 25 -39 25 -4 0 -20
9 -35 20 -21 15 -30 17 -33 8 -4 -10 -8 -9 -16 2 -6 8 -11 11 -11 6 0 -5 -6
-4 -12 2 -7 5 -34 12 -60 15 -68 8 -126 45 -111 71 4 5 2 7 -3 4 -5 -3 -17 3
-26 14 -10 10 -15 18 -12 18 3 0 -6 14 -20 31 -14 17 -23 35 -20 41 4 6 9 5
15 -3 4 -7 5 7 3 32 -4 35 -3 40 6 26 12 -19 35 -13 23 6 -4 7 1 6 11 -2 11
-10 20 -11 24 -4 4 5 18 12 32 15 14 3 33 9 43 13 12 5 17 3 17 -9 0 -9 6 -17
13 -18 6 0 17 -2 22 -3 6 -2 16 -3 23 -4 7 0 11 -5 7 -10 -3 -5 -1 -12 3 -15
5 -3 18 8 30 24 16 21 18 30 9 34 -6 4 4 4 23 1 22 -3 30 -2 21 4 -8 5 -9 11
-3 15 5 3 13 22 16 42 8 39 24 41 43 3 10 -19 13 -20 13 -6 0 10 -9 27 -20 39
-22 24 -26 43 -10 53 6 4 8 11 5 16 -4 5 1 9 9 9 9 0 16 -4 16 -9z m-1460
-511 c-39 -40 -45 -71 -12 -68 42 3 72 -3 72 -15 0 -15 -37 -40 -49 -33 -4 3
-19 -6 -31 -19 -17 -18 -19 -25 -9 -25 8 0 20 -4 28 -9 22 -14 -5 -44 -28 -31
-43 25 -43 25 -27 65 20 47 20 45 -5 45 -11 0 -28 7 -37 16 -14 15 -14 19 -1
43 11 19 22 25 40 23 16 -1 34 7 49 23 13 14 29 25 36 25 7 0 -4 -18 -26 -40z
m1064 -105 c-2 -161 -9 -283 -16 -278 -5 2 -8 -3 -8 -11 0 -9 4 -16 9 -16 13
0 21 -40 8 -40 -7 -1 6 -10 28 -21 22 -11 54 -28 70 -39 37 -23 45 -24 45 -4
0 8 4 13 9 10 5 -3 14 1 21 9 10 12 10 15 -1 16 -8 0 -27 17 -44 37 l-30 37
45 -37 c48 -39 148 -92 192 -103 32 -8 87 8 122 36 14 11 31 17 37 13 7 -4 9
-3 5 4 -3 6 -2 13 4 17 9 6 11 2 14 -35 1 -8 -4 -25 -12 -37 -8 -13 -11 -23
-8 -23 4 0 -9 -14 -28 -31 -19 -16 -38 -40 -42 -52 -10 -30 -65 -98 -75 -91
-5 3 -6 -2 -3 -10 4 -10 1 -16 -8 -16 -7 0 -22 -11 -32 -25 -10 -14 -25 -25
-32 -25 -7 0 -14 -4 -16 -8 -1 -4 -18 -18 -35 -31 -18 -12 -33 -29 -33 -37 0
-8 -4 -12 -10 -9 -10 6 -15 -9 -10 -30 1 -5 -4 -4 -11 3 -17 16 -39 15 -39 -2
0 -19 -20 -33 -55 -40 -17 -3 -24 -3 -17 0 20 10 14 24 -11 24 -13 0 -38 7
-55 16 -26 13 -32 21 -32 49 0 19 -5 37 -12 41 -7 4 -8 3 -4 -4 4 -7 2 -12 -4
-12 -6 0 -8 10 -3 28 11 40 7 74 -9 86 -8 6 -18 20 -22 31 -5 13 -10 15 -13 8
-3 -7 -15 -13 -27 -13 -17 0 -35 17 -65 59 -48 70 -129 144 -148 137 -7 -3
-13 1 -13 9 0 8 -8 19 -17 24 -10 6 -13 11 -8 11 6 1 20 3 32 6 17 3 21 0 16
-13 -5 -13 -2 -15 15 -11 12 4 20 2 17 -2 -12 -20 20 -14 41 7 13 13 30 23 39
23 8 0 15 5 15 10 0 6 10 10 21 10 17 0 20 -4 16 -22 -8 -31 10 -48 49 -48 52
0 70 16 66 56 -2 19 -8 32 -12 29 -4 -3 -10 5 -13 16 -3 11 -15 23 -26 26 -12
3 -21 11 -21 17 0 6 -15 24 -32 40 -18 16 -34 37 -34 47 -2 28 -25 79 -37 79
-5 0 -2 9 8 20 10 11 24 20 31 20 8 0 25 17 38 38 28 43 60 72 81 72 7 0 17 5
20 10 4 6 11 8 16 5 5 -4 9 -1 9 5 0 6 10 10 23 8 20 -3 22 -8 21 -73z m836
-272 c0 -7 4 -13 8 -13 5 0 15 -14 23 -32 14 -28 14 -39 1 -97 -8 -36 -16 -73
-19 -81 -3 -10 -16 -2 -45 28 l-41 43 17 41 16 41 -24 -22 c-16 -15 -26 -19
-31 -11 -5 8 -11 6 -19 -6 -10 -12 -15 -14 -20 -5 -10 15 13 43 29 37 7 -2 19
12 28 35 13 33 13 39 1 39 -18 0 -18 14 1 30 8 7 15 19 15 27 0 10 10 5 30
-14 17 -15 30 -34 30 -40z m-1256 -274 c-3 -5 3 -9 13 -9 25 0 116 -44 161
-77 64 -48 79 -68 70 -92 -4 -12 -4 -20 1 -17 4 3 6 -6 3 -21 -3 -14 -13 -28
-23 -30 -11 -3 -19 -9 -19 -14 0 -5 -12 1 -26 14 -23 19 -25 27 -20 67 7 52 1
64 -34 68 -34 4 -69 21 -108 54 -18 16 -38 26 -43 22 -6 -3 -9 2 -7 12 2 13
-2 18 -14 16 -21 -3 -23 4 -6 22 10 10 19 11 35 3 12 -5 20 -14 17 -18z m-12
-258 c31 -21 66 -42 77 -46 12 -3 21 -12 21 -20 0 -7 7 -16 16 -19 14 -5 12
-10 -11 -28 -26 -21 -28 -21 -81 -4 -33 10 -54 23 -54 32 0 7 -6 14 -12 14
-14 1 -58 64 -58 84 0 38 36 34 102 -13z m498 -304 c-15 -50 -79 -112 -149
-143 -62 -28 -81 -47 -81 -81 0 -27 24 -30 60 -7 14 8 5 -3 -20 -26 -59 -54
-80 -66 -80 -45 0 8 -5 15 -11 15 -6 0 -9 -7 -5 -15 9 -24 -50 -83 -90 -91
-26 -5 -34 -12 -35 -28 -1 -17 -2 -17 -6 -4 -5 21 -23 24 -23 6 0 -10 -3 -9
-9 1 -5 8 -16 11 -30 6 -11 -3 -21 -2 -21 3 0 8 24 20 52 26 3 0 9 4 13 8 4 4
12 4 19 2 7 -3 25 0 39 5 20 8 27 18 27 36 0 30 4 29 -74 9 -60 -15 -152 -76
-141 -93 4 -8 -18 -29 -73 -69 -22 -15 -32 -18 -32 -9 0 7 5 18 11 24 5 5 11
26 12 46 1 21 6 32 11 27 10 -10 85 67 86 88 0 15 39 51 56 52 6 0 28 20 49
45 22 24 51 49 65 55 14 5 50 26 80 45 34 22 63 33 76 30 13 -3 32 4 47 15 14
11 28 20 31 20 14 0 146 127 148 143 0 6 3 -4 5 -23 3 -19 0 -52 -7 -73z"/>
</g>
</svg>
